HIERARCHY
ROOT hip
{
	OFFSET	0.00  0.00  0.00 
	CHANNELS 6 Xposition Yposition Zposition Xrotation Zrotation Yrotation
	JOINT abdomen
	{
		OFFSET	0.000000 3.402643 0.000000
		CHANNELS 3 Xrotation Zrotation Yrotation
		JOINT chest
		{
			OFFSET	0.000000 8.438564 -0.680529
			CHANNELS 3 Xrotation Zrotation Yrotation
			JOINT neck
			{
				OFFSET	0.000000 10.207942 -0.272212
				CHANNELS 3 Xrotation Zrotation Yrotation
				JOINT head
				{
					OFFSET	0.000000 3.130431 0.000000
					CHANNELS 3 Xrotation Zrotation Yrotation
					End Site
					{
						OFFSET 0.000000 3.130435 0.000000
					}
				}
			}
			JOINT lCollar
			{
				OFFSET	3.402647 6.669187 -0.816635
				CHANNELS 3 Yrotation Zrotation Xrotation
				JOINT lShldr
				{
					OFFSET	3.266541 0.000000 0.000000
					CHANNELS 3 Zrotation Yrotation Xrotation
					JOINT lForeArm
					{
						OFFSET	10.071835 0.000000 0.000000
						CHANNELS 3 Yrotation Zrotation Xrotation
						JOINT lHand
						{
							OFFSET	8.438563 0.000000 0.000000
							CHANNELS 3 Zrotation Yrotation Xrotation
							End Site
							{
								OFFSET 4.083176 0.000000 0.000000
							}
						}
					}
				}
			}
			JOINT rCollar
			{
				OFFSET	-3.538753 6.669187 -0.816635
				CHANNELS 3 Yrotation Zrotation Xrotation
				JOINT rShldr
				{
					OFFSET	-3.130435 0.000000 0.000000
					CHANNELS 3 Zrotation Yrotation Xrotation
					JOINT rForeArm
					{
						OFFSET	-10.207940 0.000000 0.000000
						CHANNELS 3 Yrotation Zrotation Xrotation
						JOINT rHand
						{
							OFFSET	-8.302459 0.000000 0.000000
							CHANNELS 3 Zrotation Yrotation Xrotation
							End Site
							{
								OFFSET -4.083176 0.000000 0.000000
							}
						}
					}
				}
			}
		}
	}
	JOINT lThigh
	{
		OFFSET	5.308129 -1.633274 1.361059
		CHANNELS 3 Xrotation Zrotation Yrotation
		JOINT lShin
		{
			OFFSET	-2.041588 -20.007561 0.000000
			CHANNELS 3 Xrotation Zrotation Yrotation
			JOINT lFoot
			{
				OFFSET	0.000000 -19.190928 -1.224953
				CHANNELS 3 Xrotation Yrotation Zrotation
				End Site
				{
					OFFSET 0.000000 -2.449905 4.627600
				}
			}
		}
	}
	JOINT rThigh
	{
		OFFSET	-5.308129 -1.633274 1.361059
		CHANNELS 3 Xrotation Zrotation Yrotation
		JOINT rShin
		{
			OFFSET	2.041588 -20.007561 0.000000
			CHANNELS 3 Xrotation Zrotation Yrotation
			JOINT rFoot
			{
				OFFSET	0.000000 -19.190928 -1.224953
				CHANNELS 3 Xrotation Yrotation Zrotation
				End Site
				{
					OFFSET 0.000000 -2.449905 4.627600
				}
			}
		}
	}
	JOINT cyl_1
	{
		OFFSET	0.000000 0.000000 0.000000
		CHANNELS 3 Xrotation Zrotation Yrotation
		End Site
		{
			OFFSET 0.000000 -2.858223 0.000000
		}
	}
}
MOTION
Frames:     2
Frame Time: 0.033333
0.000000 44.975227 0.000000 1.000000 1.000000 -1.000000 -0.341797 0.000000 0.000000 -0.429804 0.000000 -0.449113 0.000000 0.000000 0.000000 0.000000 0.000000 0.000000 0.281988 -8.000000 -0.002729 0.000000 -4.000000 0.000000 -8.000000 0.000000 0.000000 -7.000000 0.000000 0.000000 0.000000 8.000000 -0.194249 -0.260207 4.000000 -0.449221 8.000000 0.000000 0.000000 7.000000 0.000000 0.000000 -5.121420 4.965990 0.036196 10.211700 -1.980570 -0.079563 13.613300 2.331480 5.490040 -5.122600 -5.419650 -0.144222 10.347700 2.290680 0.119386 14.681200 -1.728550 -5.011670 0.000000 0.000000 0.000000 
0.000000 44.975227 0.000000 -46.039776 -1.393834 -2.036277 17.462240 -6.694137 -0.372230 17.664673 -2.019150 -0.771483 24.860476 -19.864912 -10.329488 -3.356685 -3.917586 -7.139995 -31.381382 -14.545190 -8.842898 -36.578693 -44.279575 2.636711 -141.542191 -1.198830 -0.449014 69.709846 7.169755 4.583727 0.002194 18.598425 -0.598813 42.330124 28.803434 2.104307 42.868172 -5.034383 33.686741 19.519564 -4.346194 17.326607 -61.375610 3.143849 10.458432 19.625448 -3.841330 7.435006 45.288033 4.552824 3.135864 -55.299084 4.736690 -13.356936 15.457591 2.875998 -8.413114 43.469193 -4.381856 -3.927345 0.000000 0.000000 0.000000 
